# xmcd
#
# Track frame offsets:
#	150
#	19341
#	36153
#	58128
#	73200
#	87540
#	104121
#	119448
#	134508
#
# Disc length: 1944 seconds
#
# Revision: 1
# Processed by: cddbd v1.5.1PL0 Copyright (c) Steve Scherf et al.
# Submitted via: EasyCDDAExtractor 7.1.0.1
#
DISCID=8f079609
DTITLE=kayahan - kelebeðin þansý
DYEAR=2004
DGENRE=Acid
TTITLE0=bin parçayým hasretinle
TTITLE1=acýlanma
TTITLE2=seninle herþey varým ben
TTITLE3=masal yüzlüm
TTITLE4=minnacýk sevdacýk
TTITLE5=vay caným vay
TTITLE6=plancý
TTITLE7=masal yüzlüm
TTITLE8=kelebeðin þansý
EXTD=
EXTT0=
EXTT1=
EXTT2=
EXTT3=
EXTT4=
EXTT5=
EXTT6=
EXTT7=
EXTT8=
PLAYORDER=
